<?xml version="1.0" standalone="no"?>
<!DOCTYPE svg PUBLIC "-//W3C//DTD SVG 20010904//EN" "http://www.w3.org/TR/2001/REC-SVG-20010904/DTD/svg10.dtd">
<!-- Created using Krita: https://krita.org -->
<svg xmlns="http://www.w3.org/2000/svg" 
    xmlns:xlink="http://www.w3.org/1999/xlink"
    xmlns:krita="http://krita.org/namespaces/svg/krita"
    xmlns:sodipodi="http://sodipodi.sourceforge.net/DTD/sodipodi-0.dtd"
    width="595.2pt"
    height="841.92pt"
    viewBox="0 0 595.2 841.92">
<defs/>
<path id="shape0" transform="translate(48.9599998770792, 65.2799998361056)" fill="#2d345a" fill-rule="evenodd" stroke="#000000" stroke-width="7.2" stroke-linecap="square" stroke-linejoin="bevel" d="M0.96 147.84L0.96 187.2L20.16 210.24L57.6 214.08L79.68 222.72L83.52 237.12L91.2 240.96L0 381.12L106.56 454.08L162.24 355.68L204.48 375.36L225.6 504L317.76 568.32L526.08 234.24L451.2 176.64L365.76 206.4L323.52 185.28L326.4 150.72L305.28 137.28L307.2 117.12L292.8 108.48L303.36 81.6L270.72 66.24L270.72 47.04L236.16 14.4L168 13.44L128.64 0L103.68 61.44L35.52 139.2L0.96 147.84" sodipodi:nodetypes="cccccccccccccccccccccccccccccc"/><path id="shape1" transform="translate(119.519999041627, 80.639999353387)" fill="#2d345a" fill-rule="evenodd" stroke="#000000" stroke-width="3.6" stroke-linecap="square" stroke-linejoin="bevel" d="M10.56 209.28L8.64 188.16L0 178.08L97.44 1.44L163.68 0L201.12 32.64L200.64 50.4L135.36 21.6L21.12 222.72L12 218.4L10.56 209.28" sodipodi:nodetypes="ccccccccccc"/><path id="shape2" transform="translate(259.679992018194, 245.759983212087)" fill="#2d345a" fill-rule="evenodd" stroke="#000000" stroke-width="3.6" stroke-linecap="square" stroke-linejoin="bevel" d="M15.84 328.32L239.52 0L155.04 29.76L109.92 120L105.12 139.2L90.72 161.28L67.2 170.4L0 200.16L15.84 328.32" sodipodi:nodetypes="ccccccccc"/><path id="shape3" transform="translate(210.239985638465, 148.799989835443)" fill="#2d345a" fill-rule="evenodd" stroke="#000000" stroke-width="3.6" stroke-linecap="square" stroke-linejoin="bevel" d="M0 272.16L142.08 0" sodipodi:nodetypes="cc"/><path id="shape4" transform="translate(316.079978066625, 192.959986610149)" fill="#2d345a" fill-rule="evenodd" stroke="#000000" stroke-width="3.6" stroke-linecap="square" stroke-linejoin="bevel" d="M58.32 59.76L0 26.28L14.04 0L40.32 10.08L60.12 23.76L58.32 59.76" sodipodi:nodetypes="cccccc"/><path id="shape5" transform="translate(211.199998494214, 357.119997453853)" fill="#0a080e" fill-rule="evenodd" stroke="#000000" stroke-width="3.6" stroke-linecap="square" stroke-linejoin="bevel" d="M124.8 52.8L34.56 0L0 63.84L43.2 85.44L51.84 87.36L124.8 52.8" sodipodi:nodetypes="cccccc"/><path id="shape6" transform="translate(245.159998806867, 221.399998922501)" fill="#0a080e" fill-rule="evenodd" stroke="#000000" stroke-width="3.6" stroke-linecap="square" stroke-linejoin="bevel" d="M92.16 188.64L103.68 185.76L120.24 160.92L123.12 145.8L171 50.76L70.2 0L0 132.12L92.16 188.64" sodipodi:nodetypes="cccccccc"/><path id="shape7" transform="translate(110.159999312511, 165.599998966519)" fill="#21d6de" fill-rule="evenodd" stroke="#18878c" stroke-width="3.6" stroke-linecap="square" stroke-linejoin="bevel" d="M0 265.68L29.52 280.8L187.44 21.6L154.08 0L0 265.68" sodipodi:nodetypes="ccccc"/><path id="shape8" transform="translate(331.199987704265, 305.99998863981)" fill="#21d6de" fill-rule="evenodd" stroke="#18878c" stroke-width="3.6" stroke-linecap="square" stroke-linejoin="bevel" d="M0 253.44L20.88 272.16L184.32 15.84L167.04 0L0 253.44" sodipodi:nodetypes="ccccc"/><path id="shape9" transform="translate(93.5999936343784, 143.999990206736)" fill="#0a080e" fill-rule="evenodd" stroke="#000000" stroke-width="3.6" stroke-linecap="square" stroke-linejoin="bevel" d="M0 297.36L169.2 0L170.64 19.44L16.56 286.56L0 297.36" sodipodi:nodetypes="ccccc"/><path id="shape10" transform="translate(94.319993585412, 145.439990108803)" fill="#0a080e" fill-rule="evenodd" stroke="#000000" stroke-width="3.6" stroke-linecap="square" stroke-linejoin="bevel" d="M167.04 0L218.16 26.64L52.56 325.44L0 297.36L15.84 285.84L44.64 300.24L203.28 40.32L171.36 19.44L167.04 0" sodipodi:nodetypes="ccccccccc"/><path id="shape11" transform="translate(322.559977714192, 287.999980101957)" fill="#0a080e" fill-rule="evenodd" stroke="#000000" stroke-width="3.6" stroke-linecap="square" stroke-linejoin="bevel" d="M0 279.36L183.6 0" sodipodi:nodetypes="cc"/><path id="shape12" transform="translate(496.799965675876, 287.999980101957)" fill="#0a080e" fill-rule="evenodd" stroke="#000000" stroke-width="3.6" stroke-linecap="square" stroke-linejoin="bevel" d="M9.36 0L45.36 26.64L21.6 36L3.6 19.44L0 15.12L9.36 0" sodipodi:nodetypes="cccccc"/><path id="shape13" transform="translate(352.799975624897, 315.359978211643)" fill="#0a080e" fill-rule="evenodd" stroke="#000000" stroke-width="3.6" stroke-linecap="square" stroke-linejoin="bevel" d="M190.08 0L12.24 285.84L0 263.52L162.72 10.8L190.08 0" sodipodi:nodetypes="ccccc"/><path id="shape14" transform="translate(322.559977714192, 560.159961298306)" fill="#0a080e" fill-rule="evenodd" stroke="#000000" stroke-width="3.6" stroke-linecap="square" stroke-linejoin="bevel" d="M41.76 40.32L0 7.92L7.2 0L27.36 15.84L41.76 40.32" sodipodi:nodetypes="ccccc"/><path id="shape15" transform="translate(259.199989638447, 323.27998707684)" fill="#120c1d" fill-rule="evenodd" stroke="#0a080e" stroke-width="3.6" stroke-linecap="square" stroke-linejoin="bevel" d="M93.6 68.4L0 13.68L2.88 7.56L5.4 0L102.6 47.16L102.96 55.44L93.6 68.4" sodipodi:nodetypes="ccccccc"/><path id="shape16" transform="translate(275.759988976458, 230.39999078973)" fill="#120c1d" fill-rule="evenodd" stroke="#0a080e" stroke-width="3.6" stroke-linecap="square" stroke-linejoin="bevel" d="M41.04 0L110.52 40.68L114.84 50.4L112.32 66.24L85.68 122.04L0 82.44L41.04 0" sodipodi:nodetypes="ccccccc"/><path id="shape17" transform="translate(226.079990962423, 399.839984016346)" fill="#120c1d" fill-rule="evenodd" stroke="#0a080e" stroke-width="3.6" stroke-linecap="square" stroke-linejoin="bevel" d="M62.88 15.36L39.84 33.6L0 13.44L5.76 2.4L21.12 0L45.12 8.16L62.88 15.36" sodipodi:nodetypes="ccccccc"/><path id="shape18" transform="translate(262.439983726973, 269.639983280525)" fill="#272c46" fill-rule="evenodd" stroke="#272c46" stroke-width="3.6" stroke-linecap="square" stroke-linejoin="bevel" d="M0 178.2L11.16 260.64L35.16 218.16L35.16 206.28L35.16 186.84L40.32 178.2L58.68 167.76L81.36 160.56L90.36 151.32L119.52 109.8L119.52 97.2L146.16 38.16L156.6 21.24L166.68 9.72L176.4 0L155.88 7.92L113.4 90.72L109.8 100.08L108.36 106.92L105.12 119.16L93.24 137.16L88.2 142.2L73.44 146.88L0 178.2" sodipodi:nodetypes="cccccccccccccccccccccccc"/><path id="shape19" transform="translate(320.63998932718, 197.27999343334)" fill="#272c46" fill-rule="evenodd" stroke="#272c46" stroke-width="3.6" stroke-linecap="square" stroke-linejoin="bevel" d="M23.04 4.08L25.2 17.52L38.16 27.84L45.84 39.6L46.08 46.8L0 20.64L10.56 0L23.04 4.08" sodipodi:nodetypes="cccccccc"/><path id="shape20" transform="translate(123.479992209856, 85.3199946173056)" fill="#272c46" fill-rule="evenodd" stroke="#272c46" stroke-width="3.6" stroke-linecap="square" stroke-linejoin="bevel" d="M95.04 0L122.4 25.92L17.28 214.56L11.16 212.4L8.28 182.16L0 173.52L95.04 0" sodipodi:nodetypes="ccccccc"/><path id="shape21" transform="translate(55.4399964424178, 76.5599974516254)" fill="#272c46" fill-rule="evenodd" stroke="#272c46" stroke-width="3.6" stroke-linecap="square" stroke-linejoin="bevel" d="M123.36 0L129.12 7.68L139.68 8.88L147.84 8.64L152.88 10.08L154.08 11.76L61.68 177.84L60.12 185.88L69.84 193.08L70.56 204.6L54.72 197.04L17.64 194.88L0.72 175.08L0 140.88L31.68 134.04L102.24 53.4L123.36 0" sodipodi:nodetypes="ccccccccccccccccc"/>
</svg>
