<?xml version="1.0" standalone="no"?>
<!DOCTYPE svg PUBLIC "-//W3C//DTD SVG 20010904//EN" "http://www.w3.org/TR/2001/REC-SVG-20010904/DTD/svg10.dtd">
<!-- Created using Krita: https://krita.org -->
<svg xmlns="http://www.w3.org/2000/svg" 
    xmlns:xlink="http://www.w3.org/1999/xlink"
    xmlns:krita="http://krita.org/namespaces/svg/krita"
    xmlns:sodipodi="http://sodipodi.sourceforge.net/DTD/sodipodi-0.dtd"
    width="585.36pt"
    height="661.68pt"
    viewBox="0 0 585.36 661.68">
<defs/>
<path id="shape0" transform="matrix(1.11549103452927 0 0 1 297.5194285271 29.9551829584776)" fill="#18878c" fill-rule="evenodd" stroke="none" stroke-width="10.8" stroke-linecap="square" stroke-linejoin="bevel" d="M6.84 1.21719L51.7783 0L92.9006 2.99822L117.643 16.3051L147.867 39.4361L169.853 80.4965L189.525 135.822L193.922 166.755L191.283 230.079L184.757 265.662L179.064 272.558L195.31 290.645L187.858 315.234L170.547 351.606L143.609 362.56L127.687 372.254L125.65 396.961L123.475 422.023L129.075 442.277L128.937 462.847L107.043 476.009L70.2669 499.455L43.1229 540.436L27.4783 549.184L8.77886 552.81L2.484 551.706L0 10.9372" sodipodi:nodetypes="ccccccccccccccccccccccccccc"/><path id="shape1" transform="matrix(1.11549103452927 0 0 1 344.934168192916 95.4888003672493)" fill="#21d6de" fill-rule="evenodd" stroke="none" stroke-width="10.8" stroke-linecap="square" stroke-linejoin="bevel" d="M62.7326 0L64.4297 88.1893L31.9989 79.993L1.41943 75.8948L0 49.6771L24.5212 29.7905L36.504 2.81092L62.7326 0" sodipodi:nodetypes="cccccccc"/><path id="shape2" transform="matrix(1.11549103452927 0 0 1 418.652198742215 198.149123916957)" fill="#21d6de" fill-rule="evenodd" stroke="none" stroke-width="7.2" stroke-linecap="square" stroke-linejoin="bevel" d="M7.40571 0L47.7977 6.72519L62.3623 4.22951L70.5394 16.524L69.3977 32.9692L51.0377 41.1655L25.4571 24.8517L0 15.1054L7.40571 0" sodipodi:nodetypes="ccccccccc"/><path id="shape3" transform="matrix(1.11549103452927 0 0 1 462.951851937723 255.523392096075)" fill="#21d6de" fill-rule="evenodd" stroke="none" stroke-width="7.2" stroke-linecap="square" stroke-linejoin="bevel" d="M17.712 0L16.6011 32.4175L24.7783 46.5246L10.5223 51.1219L0 35.5699L1.82057 7.35568L17.712 0" sodipodi:nodetypes="ccccccc"/><path id="shape4" transform="matrix(1.11549103452927 0 0 1 462.676485018093 312.582417043439)" fill="#21d6de" fill-rule="evenodd" stroke="none" stroke-width="7.2" stroke-linecap="square" stroke-linejoin="bevel" d="M29.4994 0L37.152 11.664L19.8411 51.9869L0 51.9869L7.128 27.4787L12.4046 5.88454L29.4994 0" sodipodi:nodetypes="ccccccc"/><path id="shape5" transform="matrix(1.11549103452927 0 0 1 303.617668066699 188.075935078818)" fill="#21d6de" fill-rule="evenodd" stroke="none" stroke-width="7.2" stroke-linecap="square" stroke-linejoin="bevel" d="M0.216 50.3601L2.00571 155.31L16.848 161.194L31.0731 177.033L44.8971 187.832L61.56 189.277L61.56 177.033L61.56 165.214L81.0926 159.986L84.5486 147.98L69.7989 140.047L47.0571 131.903L33.7269 117.954L20.4583 100.116L16.9097 76.0262L19.5326 48.889L36.8434 34.6768L41.4103 23.0653L28.728 20.7272L21.1063 11.2174L16.0457 0L8.08457 0.236432L0 12.5309L0.216 50.3601" sodipodi:nodetypes="cccccccccccccccccccccccc"/><path id="shape6" transform="matrix(1.11549103452927 0 0 1 305.659962451124 38.6652365642373)" fill="#21d6de" fill-rule="evenodd" stroke="none" stroke-width="7.2" stroke-linecap="square" stroke-linejoin="bevel" d="M0 1.16246L67.6003 0L114.881 25.4165L159.987 101.567L161.699 144.401L145.893 129.486L132.516 86.3175L106.226 54.4386L71.8817 47.3456L25.9663 40.8043L6.66514 21.9291L0 1.16246" sodipodi:nodetypes="cccccccccccc"/><path id="shape7" transform="matrix(1.11549103452927 0 0 1 310.163369218745 416.166088943746)" fill="#21d6de" fill-rule="evenodd" stroke="none" stroke-width="7.2" stroke-linecap="square" stroke-linejoin="bevel" d="M0.0771429 9.0107L10.7383 0L30.4714 7.48703L27.8331 41.5858L9.16457 51.1351L0 33.6259L0.0771429 9.0107" sodipodi:nodetypes="ccccccc"/><path id="shape8" transform="matrix(1.11549103452927 0 0 1 346.804379962039 417.308845658852)" fill="#21d6de" fill-rule="evenodd" stroke="none" stroke-width="7.2" stroke-linecap="square" stroke-linejoin="bevel" d="M5.10686 5.39854L16.7091 0L22.8446 15.4075L16.8171 33.4552L0 31.4455L5.10686 5.39854" sodipodi:nodetypes="cccccc"/><path id="shape9" transform="matrix(1.11549103452927 0 0 1 372.287308637253 413.591602551093)" fill="#21d6de" fill-rule="evenodd" stroke="none" stroke-width="7.2" stroke-linecap="square" stroke-linejoin="bevel" d="M13.32 0L21.204 17.0494L0 31.4455L0 11.2174L13.32 0" sodipodi:nodetypes="ccccc"/><path id="shape10" transform="matrix(1.11549103452927 0 0 1 392.119448673684 415.377980864363)" fill="#21d6de" fill-rule="evenodd" stroke="none" stroke-width="7.2" stroke-linecap="square" stroke-linejoin="bevel" d="M8.68629 0L17.8817 11.3356L4.644 19.6896L0 6.43622L8.68629 0" sodipodi:nodetypes="ccccc"/><path id="shape11" transform="matrix(1.11549103452927 0 0 1 405.440323410795 411.949710719045)" fill="#21d6de" fill-rule="evenodd" stroke="none" stroke-width="7.2" stroke-linecap="square" stroke-linejoin="bevel" d="M8.47029 0L13.1451 10.4556L6.12514 19.2692L0 7.56584L8.47029 0" sodipodi:nodetypes="ccccc"/><path id="shape12" transform="matrix(1.11549103452927 0 0 1 313.35304653657 479.237371318928)" fill="#21d6de" fill-rule="evenodd" stroke="none" stroke-width="7.2" stroke-linecap="square" stroke-linejoin="bevel" d="M6.94286 0L28.0954 2.79778L13.3071 41.8879L0 32.9626L2.08286 0.157622L6.94286 0" sodipodi:nodetypes="cccccc"/><path id="shape13" transform="matrix(1.11549103452927 0 0 1 345.906580536774 476.813938902599)" fill="#21d6de" fill-rule="evenodd" stroke="none" stroke-width="7.2" stroke-linecap="square" stroke-linejoin="bevel" d="M5.85514 0L23.6494 5.51676L9.396 32.7262L0 25.8302L5.85514 0" sodipodi:nodetypes="ccccc"/><path id="shape14" transform="matrix(1.11549103452927 0 0 1 372.287308637253 460.874452522034)" fill="#21d6de" fill-rule="evenodd" stroke="none" stroke-width="7.2" stroke-linecap="square" stroke-linejoin="bevel" d="M0 0L23.4694 5.22122L7.26943 35.6619L0 26.4213L0 0" sodipodi:nodetypes="ccccc"/><path id="shape15" transform="matrix(1.11549103452927 0 0 1 400.429232248457 455.613830935371)" fill="#21d6de" fill-rule="evenodd" stroke="none" stroke-width="7.2" stroke-linecap="square" stroke-linejoin="bevel" d="M5.508 0L11.7103 9.85135L0.0231429 27.3671L0 3.34946L5.508 0" sodipodi:nodetypes="ccccc"/><rect id="shape16" transform="translate(212.58000306305, 34.740001939564)" fill="#000000" fill-rule="evenodd" stroke="#000000" stroke-width="10.8" stroke-linecap="square" stroke-linejoin="bevel" width="90.72" height="46.08"/><rect id="shape17" transform="translate(100.440003109697, 304.200001928799)" fill="#000000" fill-rule="evenodd" stroke="#000000" stroke-width="10.8" stroke-linecap="square" stroke-linejoin="bevel" width="196.56" height="110.16"/><rect id="shape18" transform="translate(198.360003109697, 176.760001928799)" fill="#000000" fill-rule="evenodd" stroke="#000000" stroke-width="10.8" stroke-linecap="square" stroke-linejoin="bevel" width="98.64" height="64.8"/><rect id="shape19" transform="translate(231.480003109697, 469.800001928799)" fill="#000000" fill-rule="evenodd" stroke="#000000" stroke-width="10.8" stroke-linecap="square" stroke-linejoin="bevel" width="70.56" height="61.2"/><rect id="shape20" transform="translate(130.680003109697, 89.6400019287993)" fill="#2d345a" fill-rule="evenodd" stroke="#2d345a" stroke-width="10.8" stroke-linecap="square" stroke-linejoin="bevel" width="164.88" height="75.6"/><rect id="shape21" transform="translate(142.200003109697, 261.000001928799)" fill="#2d345a" fill-rule="evenodd" stroke="#2d345a" stroke-width="10.8" stroke-linecap="square" stroke-linejoin="bevel" width="154.08" height="36.72"/><rect id="shape22" transform="translate(165.960003109697, 201.240001928799)" fill="#2d345a" fill-rule="evenodd" stroke="#2d345a" stroke-width="10.8" stroke-linecap="square" stroke-linejoin="bevel" width="133.92" height="53.28"/><rect id="shape23" transform="translate(250.920003109697, 432.360001928799)" fill="#2d345a" fill-rule="evenodd" stroke="#2d345a" stroke-width="10.8" stroke-linecap="square" stroke-linejoin="bevel" width="50.4" height="31.68"/><rect id="shape24" transform="translate(282.060003118069, 542.16000190727)" fill="#2d345a" fill-rule="evenodd" stroke="#2d345a" stroke-width="10.8" stroke-linecap="square" stroke-linejoin="bevel" width="20.16" height="46.8"/><rect id="shape25" transform="translate(302.760003109697, 34.2000019287993)" fill="#000000" fill-rule="evenodd" stroke="#000000" stroke-width="10.8" stroke-linecap="square" stroke-linejoin="bevel" width="1.44" height="555.12"/><rect id="shape26" transform="translate(199.080003109697, 233.640001928799)" fill="#000000" fill-rule="evenodd" stroke="#000000" stroke-width="10.8" stroke-linecap="square" stroke-linejoin="bevel" width="102.24" height="51.12"/><rect id="shape27" transform="translate(243.000003109697, 140.760001928799)" fill="#000000" fill-rule="evenodd" stroke="#000000" stroke-width="10.8" stroke-linecap="square" stroke-linejoin="bevel" width="57.6" height="43.92"/><rect id="shape28" transform="translate(189.000003109697, 398.520001928799)" fill="#000000" fill-rule="evenodd" stroke="#000000" stroke-width="10.8" stroke-linecap="square" stroke-linejoin="bevel" width="110.88" height="42.48"/><path id="shape29" transform="matrix(1.11549103452927 0 0 1 381.322786060768 258.009347339206)" fill="#4ef8ff" fill-rule="evenodd" stroke="#21d6de" stroke-width="7.2" stroke-linecap="square" stroke-linejoin="bevel" d="M0.757272 26.55L0 9.72L5.58 0L25.38 0L31.32 9.72L31.14 26.46L27 35.82L9.72 37.26L2.45159 30.06" sodipodi:nodetypes="ccccccccc"/>
</svg>
